<svg xmlns="http://www.w3.org/2000/svg" viewBox="0 0 24 24" fill="currentColor">
  <path d="M13.06 7.11a4.25 4.25 0 0 0-5.72 5.72l-4.1 4.1a1.75 1.75 0 0 0 2.47 2.47l1.41-1.41a.75.75 0 0 0-1.06-1.06l-1.41 1.41a.25.25 0 0 1-.35-.35l4.1-4.1a4.25 4.25 0 0 0 5.72-5.72l1.06 1.06a2.75 2.75 0 1 1-3.89 3.89l-1.06-1.06a4.25 4.25 0 1 0-5.72 5.72l-1.06 1.06a2.75 2.75 0 1 0 3.89 3.89l4.1-4.1a.75.75 0 1 0-1.06-1.06l-4.1 4.1a1.25 1.25 0 1 1-1.77-1.77l1.06-1.06a5.75 5.75 0 1 1 8.13-8.13l1.06 1.06a1.25 1.25 0 1 0 1.77-1.77l-1.06-1.06a4.25 4.25 0 0 0 0-6.01 4.25 4.25 0 0 0-6.01 0z"/>
</svg>
